<svg width="172" height="60" viewBox="0 0 172 60" fill="none" xmlns="http://www.w3.org/2000/svg">
    <path d="M30.12 29.88C30.12 21.44 23.76 15.52 15.76 15.52C7.8 15.52 1.32 21.44 1.32 29.88C1.32 38.32 7.8 44.28 15.76 44.28C23.72 44.28 30.12 38.32 30.12 29.88ZM8.32 29.88C8.32 24.88 11.2 21.72 15.76 21.72C20.24 21.72 23.16 24.88 23.16 29.88C23.16 34.8 20.24 38.04 15.76 38.04C11.2 38.04 8.32 34.8 8.32 29.88ZM54.3253 35.64C54.3253 26.24 40.4453 28.44 40.4453 23.56C40.4453 21.8 41.6853 20.96 43.3253 21C45.1653 21.04 46.4453 22.12 46.5653 23.92H53.9653C53.6853 18.56 49.5653 15.52 43.4453 15.52C37.5653 15.52 33.2053 18.48 33.2053 23.8C33.1253 33.76 47.1653 30.96 47.1653 36.16C47.1653 37.8 45.8853 38.8 43.8853 38.8C41.9653 38.8 40.6053 37.76 40.4053 35.6H33.1253C33.3253 41.28 38.0453 44.28 44.0853 44.28C50.6453 44.28 54.3253 40.36 54.3253 35.64ZM58.5347 44H65.3747V15.92H58.5347V44ZM71.4116 36.24C71.4116 42.04 74.6516 44 79.2916 44H82.7716V38.2H80.3316C78.8116 38.2 78.2516 37.64 78.2516 36.32V27.36H82.7316V21.68H78.2516V16.24H71.4116V21.68H68.6916V27.36H71.4116V36.24ZM96.4216 26.84C98.7016 26.84 100.622 28.24 100.622 30.68H92.0616C92.4616 28.2 94.1816 26.84 96.4216 26.84ZM107.102 36.6H99.8216C99.2616 37.8 98.1816 38.76 96.2616 38.76C94.0616 38.76 92.2616 37.4 92.0216 34.48H107.502C107.582 33.8 107.622 33.12 107.622 32.48C107.622 25.68 103.022 21.36 96.5016 21.36C89.8616 21.36 85.2216 25.76 85.2216 32.84C85.2216 39.92 89.9416 44.32 96.5016 44.32C102.062 44.32 106.022 40.96 107.102 36.6ZM129.35 37.52C129.23 29.2 117.15 31.72 117.15 28.16C117.15 27.08 118.03 26.44 119.63 26.44C121.55 26.44 122.71 27.44 122.91 28.96H129.23C128.79 24.56 125.59 21.36 119.83 21.36C113.99 21.36 110.75 24.48 110.75 28.28C110.75 36.48 122.91 33.88 122.91 37.48C122.91 38.48 121.99 39.28 120.23 39.28C118.35 39.28 116.95 38.24 116.79 36.68H110.03C110.35 41 114.35 44.32 120.31 44.32C125.91 44.32 129.35 41.4 129.35 37.52ZM134.615 36.24C134.615 42.04 137.855 44 142.495 44H145.975V38.2H143.535C142.015 38.2 141.455 37.64 141.455 36.32V27.36H145.935V21.68H141.455V16.24H134.615V21.68H131.895V27.36H134.615V36.24Z" fill="white"/>
    <circle cx="165" cy="37" r="7" fill="#01A1DD"/>
</svg>

